<svg id="visual" viewBox="0 0 900 600" width="900" height="600" xmlns="http://www.w3.org/2000/svg" xmlns:xlink="http://www.w3.org/1999/xlink" version="1.1"><rect x="0" y="0" width="900" height="600" fill="#2a3f2d"></rect><path d="M0 538L12.5 538.7C25 539.3 50 540.7 75 538.3C100 536 125 530 150 531.8C175 533.7 200 543.3 225 544.3C250 545.3 275 537.7 300 534.2C325 530.7 350 531.3 375 535.3C400 539.3 425 546.7 450 548C475 549.3 500 544.7 525 538.3C550 532 575 524 600 527.5C625 531 650 546 675 546.7C700 547.3 725 533.7 750 533.5C775 533.3 800 546.7 825 548C850 549.3 875 538.7 887.5 533.3L900 528L900 601L887.5 601C875 601 850 601 825 601C800 601 775 601 750 601C725 601 700 601 675 601C650 601 625 601 600 601C575 601 550 601 525 601C500 601 475 601 450 601C425 601 400 601 375 601C350 601 325 601 300 601C275 601 250 601 225 601C200 601 175 601 150 601C125 601 100 601 75 601C50 601 25 601 12.5 601L0 601Z" fill="#ffffff" stroke-linecap="round" stroke-linejoin="miter"></path></svg>